<?xml version="1.0" encoding="utf-8" standalone="yes"?><svg xmlns="http://www.w3.org/2000/svg" viewBox="-15 -15 30 30"><defs><linearGradient id="yellow-shadow-strong" x1="1" y1="1" x2="0" y2="0"><stop offset="0" stop-color="#ff0"/><stop offset="0.6" stop-color="#000"/><stop offset="1" stop-color="#000"/></linearGradient><linearGradient id="yellow-shadow-weak" x1="1" y1="1" x2="0" y2="0"><stop offset="0" stop-color="#ff0"/><stop offset="0.3" stop-color="#ff0"/><stop offset="1" stop-color="#000"/></linearGradient><g id="fifth-frame"><path id="fifth-frame-corner" fill="#000" d="M-5.71-9.9c-.75.5-.51.82 3.36 6.66L-6.97-9.58-6-10.3z"/><use href="#fifth-frame-corner" transform="scale(-1 1)"/><path stroke="#000" stroke-width="0.5" fill="none" d="M-5.88-10.1a10 10 0 0 1 11.76 0"/></g><g id="fifth-rose-curve"><path id="fifth-rose-curve-half" fill="#000" d="M-3.44-6.43c-2.35-1.34-2.29-4.97.68-3.83 1.4.49 1.84.65 2.76.66v.9c-1.36.03-2.27-.5-3.33-.66S-4.44-9-3.44-6.43"/><use href="#fifth-rose-curve-half" transform="scale(-1 1)"/></g><path id="fifth-middle-star" fill="#000" d="M4.82 6.63a.2.2 0 0 1-.28-.04C0 1.5 0 1.5-4.54 6.59a.2.2 0 0 1-.28.04L0 0z"/><path id="fifth-peak-half" stroke="#000" stroke-width="0.1" stroke-linejoin="round" d="M-1.8 11.75C-.7 11.75 0 14.5 0 14.5V11.75z"/></defs><circle x="0" y="0" r="11.8" fill="#C82327"/><use href="#fifth-frame"/><use href="#fifth-frame" transform="rotate(72)"/><use href="#fifth-frame" transform="rotate(144)"/><use href="#fifth-frame" transform="rotate(216)"/><use href="#fifth-frame" transform="rotate(288)"/><use href="#fifth-rose-curve"/><use href="#fifth-rose-curve" transform="rotate(72)"/><use href="#fifth-rose-curve" transform="rotate(144)"/><use href="#fifth-rose-curve" transform="rotate(216)"/><use href="#fifth-rose-curve" transform="rotate(288)"/><use href="#fifth-middle-star"/><use href="#fifth-middle-star" transform="rotate(72)"/><use href="#fifth-middle-star" transform="rotate(144)"/><use href="#fifth-middle-star" transform="rotate(216)"/><use href="#fifth-middle-star" transform="rotate(288)"/><g><use href="#fifth-peak-half" fill="url(#yellow-shadow-strong)"/><use href="#fifth-peak-half" transform="scale(-1 1)" fill="url(#yellow-shadow-weak)"/></g><g transform="rotate(72)"><use href="#fifth-peak-half" fill="url(#yellow-shadow-weak)"/><use href="#fifth-peak-half" transform="scale(-1 1)" fill="url(#yellow-shadow-strong)"/></g><g transform="rotate(144)"><use href="#fifth-peak-half" fill="url(#yellow-shadow-weak)"/><use href="#fifth-peak-half" transform="scale(-1 1)" fill="url(#yellow-shadow-strong)"/></g><g transform="rotate(216)"><use href="#fifth-peak-half" fill="url(#yellow-shadow-strong)"/><use href="#fifth-peak-half" transform="scale(-1 1)" fill="url(#yellow-shadow-weak)"/></g><g transform="rotate(288)"><use href="#fifth-peak-half" fill="url(#yellow-shadow-strong)"/><use href="#fifth-peak-half" transform="scale(-1 1)" fill="url(#yellow-shadow-weak)"/></g><circle x="0" y="0" r="2" fill="#E7E602"/></svg>